<?xml version="1.0" encoding="iso-8859-1"?>
<!-- Generator: Adobe Illustrator 17.1.0, SVG Export Plug-In . SVG Version: 6.00 Build 0)  -->
<!DOCTYPE svg PUBLIC "-//W3C//DTD SVG 1.1//EN">
<svg version="1.1" id="Capa_1" xmlns="http://www.w3.org/2000/svg" xmlns:xlink="http://www.w3.org/1999/xlink" x="0px" y="0px"
	 viewBox="0 0 458.079 458.079" style="enable-background:new 0 0 458.079 458.079;" xml:space="preserve">
<g>
	<path d="M449.631,218.094l-68.794-32.627c-2.876-1.364-5.292-2.027-7.388-2.027c-2.9,0-5.273,1.317-6.51,3.614
		c-2.463,4.575,1.112,9.996,2.287,11.777l8.383,12.708h-92.43c-3.704-6.841-9.576-11.188-16.308-11.188
		c-5.069,0-9.65,2.466-13.187,6.603c-3.537-4.138-8.118-6.603-13.187-6.603c-5.069,0-9.65,2.466-13.187,6.603
		c-3.537-4.137-8.118-6.603-13.187-6.603c-6.732,0-12.604,4.346-16.308,11.188h-67.333c-13.068-9.608-32.914-21.149-55.979-24.322
		l-0.707-0.049c-2.02,0-3.871,1.198-4.718,3.052c-0.879,1.926-0.577,4.176,0.766,5.725c5.744,6.652,21.485,24.456,21.634,24.624
		c2.03,2.31,3.127,5.293,3.089,8.398v0.122c0.038,3.106-1.059,6.089-3.083,8.393c-0.163,0.184-16.306,18.494-21.772,24.78
		c-1.329,1.515-1.64,3.707-0.79,5.583c0.844,1.862,2.696,3.065,4.721,3.065l0.696-0.047c23.118-3.138,43.016-14.697,56.115-24.324
		h67.362c3.704,6.841,9.576,11.188,16.308,11.188c5.069,0,9.651-2.466,13.187-6.603c3.536,4.137,8.118,6.603,13.187,6.603
		c5.069,0,9.65-2.466,13.187-6.603c3.537,4.138,8.118,6.603,13.187,6.603c6.732,0,12.604-4.346,16.308-11.188h92.43l-8.383,12.708
		c-1.175,1.782-4.75,7.203-2.287,11.777c1.236,2.297,3.609,3.614,6.51,3.614c2.096,0,4.512-0.663,7.388-2.027l68.794-32.627
		c7.351-3.486,8.448-8.354,8.448-10.945S456.981,221.58,449.631,218.094z"/>
	<path d="M36.302,193.372c-1.825-1.987-3.851-2.404-5.228-2.404c-1.467,0-2.594,0.478-3.173,0.726
		C4.841,200.084,0,216.628,0,229.029c0,12.763,5.107,29.694,29.437,37.872c0.605,0.204,1.238,0.308,1.88,0.308
		c1.827,0,3.532-0.821,4.802-2.313c6.771-7.958,27.619-31.445,28.516-32.456c1.724-1.956,1.69-4.864-0.084-6.921
		C61.07,221.498,43.354,201.051,36.302,193.372z"/>
</g>
<g>
</g>
<g>
</g>
<g>
</g>
<g>
</g>
<g>
</g>
<g>
</g>
<g>
</g>
<g>
</g>
<g>
</g>
<g>
</g>
<g>
</g>
<g>
</g>
<g>
</g>
<g>
</g>
<g>
</g>
</svg>
